<mxfile host="app.diagrams.net" modified="2022-04-14T04:27:30.806Z" agent="5.0 (Macintosh; Intel Mac OS X 10_15_7) AppleWebKit/537.36 (KHTML, like Gecko) Chrome/100.0.4896.88 Safari/537.36" etag="DR2uzIqsHZ6v9MlrhsFp" version="17.4.4" type="github">
  <diagram id="YUXvDOU9lUpUWf1_K_Xy" name="Page-1">
    <mxGraphModel dx="1186" dy="693" grid="1" gridSize="10" guides="1" tooltips="1" connect="1" arrows="1" fold="1" page="1" pageScale="1" pageWidth="827" pageHeight="1169" math="0" shadow="0">
      <root>
        <mxCell id="0" />
        <mxCell id="1" parent="0" />
        <mxCell id="TFGZgrzMiknKLHDPgV2h-4" style="edgeStyle=orthogonalEdgeStyle;rounded=0;orthogonalLoop=1;jettySize=auto;html=1;exitX=1;exitY=0.5;exitDx=0;exitDy=0;" edge="1" parent="1" source="TFGZgrzMiknKLHDPgV2h-1" target="TFGZgrzMiknKLHDPgV2h-2">
          <mxGeometry relative="1" as="geometry" />
        </mxCell>
        <mxCell id="TFGZgrzMiknKLHDPgV2h-1" value="あいうえお" style="whiteSpace=wrap;html=1;aspect=fixed;" vertex="1" parent="1">
          <mxGeometry x="70" y="170" width="80" height="80" as="geometry" />
        </mxCell>
        <mxCell id="TFGZgrzMiknKLHDPgV2h-2" value="" style="swimlane;startSize=0;" vertex="1" parent="1">
          <mxGeometry x="310" y="260" width="200" height="200" as="geometry" />
        </mxCell>
        <mxCell id="TFGZgrzMiknKLHDPgV2h-3" value="" style="curved=1;endArrow=classic;html=1;rounded=0;" edge="1" parent="1">
          <mxGeometry width="50" height="50" relative="1" as="geometry">
            <mxPoint x="390" y="380" as="sourcePoint" />
            <mxPoint x="440" y="330" as="targetPoint" />
            <Array as="points">
              <mxPoint x="440" y="380" />
              <mxPoint x="390" y="330" />
            </Array>
          </mxGeometry>
        </mxCell>
      </root>
    </mxGraphModel>
  </diagram>
</mxfile>
